<svg width="23" height="16" viewBox="0 0 23 16" fill="none" xmlns="http://www.w3.org/2000/svg">
<g opacity="0.3">
<path d="M11.4583 2.27083C15.4062 2.27083 18.9271 4.48958 20.6458 8C18.9271 11.5104 15.4167 13.7292 11.4583 13.7292C7.5 13.7292 3.98958 11.5104 2.27083 8C3.98958 4.48958 7.51042 2.27083 11.4583 2.27083ZM11.4583 0.1875C6.25 0.1875 1.80208 3.42708 0 8C1.80208 12.5729 6.25 15.8125 11.4583 15.8125C16.6667 15.8125 21.1146 12.5729 22.9167 8C21.1146 3.42708 16.6667 0.1875 11.4583 0.1875ZM11.4583 5.39583C12.8958 5.39583 14.0625 6.5625 14.0625 8C14.0625 9.4375 12.8958 10.6042 11.4583 10.6042C10.0208 10.6042 8.85417 9.4375 8.85417 8C8.85417 6.5625 10.0208 5.39583 11.4583 5.39583ZM11.4583 3.3125C8.875 3.3125 6.77083 5.41667 6.77083 8C6.77083 10.5833 8.875 12.6875 11.4583 12.6875C14.0417 12.6875 16.1458 10.5833 16.1458 8C16.1458 5.41667 14.0417 3.3125 11.4583 3.3125Z" fill="#D12642"/>
</g>
</svg>
