<svg width="22" height="22" viewBox="0 0 22 22" fill="none" xmlns="http://www.w3.org/2000/svg">
<path d="M15.95 15.95C14.5255 17.0358 12.7909 17.6374 11 17.6667C5.16666 17.6667 1.83333 11 1.83333 11C2.8699 9.06824 4.30761 7.3805 6.04999 6.05M9.24999 4.53333C9.8236 4.39906 10.4109 4.33195 11 4.33333C16.8333 4.33333 20.1667 11 20.1667 11C19.6608 11.9463 19.0575 12.8373 18.3667 13.6583M12.7667 12.7667C12.5378 13.0123 12.2618 13.2093 11.9551 13.3459C11.6485 13.4826 11.3174 13.556 10.9817 13.562C10.6461 13.5679 10.3126 13.5061 10.0013 13.3804C9.69004 13.2547 9.40726 13.0675 9.16987 12.8301C8.93247 12.5927 8.74532 12.31 8.61959 11.9987C8.49385 11.6874 8.4321 11.3539 8.43802 11.0183C8.44394 10.6826 8.51742 10.3515 8.65406 10.0449C8.7907 9.73821 8.98771 9.46221 9.23333 9.23333M1.83333 1.83333L20.1667 20.1667" stroke="#D12642" stroke-width="2" stroke-linecap="round" stroke-linejoin="round"/>
</svg>
