<svg width="242" height="49" viewBox="0 0 242 49" fill="none" xmlns="http://www.w3.org/2000/svg">
<path d="M40.7 42.95C44.1667 42.95 46.9667 42.2667 49.1 40.9L49.45 41.3C46.5833 45.2667 43.0167 47.4667 38.75 47.9C37.85 48 37.0667 48.05 36.4 48.05C35.7667 48.05 35.0167 48.0167 34.15 47.95C33.3167 47.9167 32.1333 47.7 30.6 47.3C29.0667 46.9 27.7167 46.4833 26.55 46.05C25.3833 45.65 24.0333 45.1 22.5 44.4C20.9667 43.7333 19.7 43.1333 18.7 42.6C17.7 42.1 16.5 41.4833 15.1 40.75C13.7333 40.05 12.5333 39.45 11.5 38.95C10.4667 38.45 9.46667 38.0167 8.5 37.65C5.76667 36.55 2.96667 36 0.1 36V35.5H0.75C1.61667 35.5 2.35 35.2 2.95 34.6C3.58333 34 3.91667 33.25 3.95 32.35V4.65C3.91667 3.75 3.58333 3 2.95 2.4C2.35 1.8 1.61667 1.5 0.75 1.5H0.1V0.999998H15.3L15.25 1.5H14.75C13.4833 1.5 12.5333 2.01666 11.9 3.05C11.6 3.51666 11.45 4.05 11.45 4.65V33.65C11.45 34.75 11.6667 35.5167 12.1 35.95C12.5333 36.35 13.0167 36.6333 13.55 36.8C26.0833 40.9 35.1333 42.95 40.7 42.95ZM58.8379 1.5H57.9879C57.2879 1.5 56.6712 1.73333 56.1379 2.2C55.6379 2.63333 55.3879 3.18333 55.3879 3.85V23.35C55.3879 27.45 54.1046 30.7 51.5379 33.1C48.9712 35.5 45.4546 36.7 40.9879 36.7C35.7212 36.7 31.6879 35.5333 28.8879 33.2C26.0879 30.8333 24.6879 27.5667 24.6879 23.4V4C24.6879 3.26666 24.4212 2.66666 23.8879 2.2C23.3879 1.73333 22.7712 1.5 22.0379 1.5H21.2379V0.999998H35.6379V1.5H34.8379C34.1046 1.5 33.4879 1.73333 32.9879 2.2C32.4879 2.63333 32.2212 3.2 32.1879 3.9V23C32.1879 26.5333 33.0546 29.3333 34.7879 31.4C36.5212 33.4667 38.9046 34.5 41.9379 34.5C44.9712 34.5 47.3712 33.5333 49.1379 31.6C50.9046 29.6333 51.8046 26.9833 51.8379 23.65V3.9C51.8379 3.2 51.5712 2.63333 51.0379 2.2C50.5379 1.73333 49.9212 1.5 49.1879 1.5H48.3879V0.999998H58.8379V1.5ZM106.922 35.5H107.722V36H92.7223V35.55H93.4723C94.0389 35.55 94.5223 35.3333 94.9223 34.9C95.3223 34.4333 95.4889 33.9333 95.4223 33.4L93.4723 15.25L84.0723 31.45C82.8389 33.5167 82.2056 35.3667 82.1723 37H81.6723L68.8223 15.4L66.8723 33.4C66.8056 33.9333 66.9723 34.4333 67.3723 34.9C67.7723 35.3333 68.2556 35.55 68.8223 35.55H69.5723V36H59.1223V35.5H59.9223C60.8556 35.5 61.6556 35.2167 62.3223 34.65C63.0223 34.0833 63.4389 33.3167 63.5723 32.35L67.7223 0.299998H68.1723L83.6723 25.8L98.5723 0.299998H99.0223L103.272 32.35C103.439 33.3167 103.856 34.0833 104.522 34.65C105.222 35.2167 106.022 35.5 106.922 35.5ZM109.979 35.5C110.845 35.5 111.579 35.2 112.179 34.6C112.812 33.9667 113.145 33.2167 113.179 32.35V4.6C113.145 3.73333 112.812 3 112.179 2.4C111.579 1.8 110.845 1.5 109.979 1.5H109.329V0.999998H124.529L124.479 1.5H123.879C123.012 1.5 122.262 1.8 121.629 2.4C120.995 3 120.679 3.73333 120.679 4.6V32.35C120.679 33.2167 120.995 33.9667 121.629 34.6C122.262 35.2 123.012 35.5 123.879 35.5H124.479L124.529 36H109.329V35.5H109.979ZM154.816 9.6C154.816 11.1667 154.416 12.5667 153.616 13.8C152.849 15.0333 151.849 15.8833 150.616 16.35C154.482 16.55 157.299 18.0667 159.066 20.9C159.966 22.3333 160.416 24.1 160.416 26.2C160.416 28.3 159.599 30.2167 157.966 31.95C156.366 33.6833 154.316 34.9167 151.816 35.65C149.316 36.3833 146.682 36.75 143.916 36.75C137.016 36.75 132.082 34.9167 129.116 31.25C127.216 28.9167 126.266 25.7667 126.266 21.8C126.266 21.1333 126.299 20.4667 126.366 19.8L126.866 19.75C127.099 25.4833 129.149 29.5833 133.016 32.05V4.6C132.982 3.36667 132.432 2.46667 131.366 1.9C130.899 1.63333 130.382 1.5 129.816 1.5H129.166V0.999998H141.866C145.566 0.999998 148.649 1.75 151.116 3.25C153.582 4.71667 154.816 6.83333 154.816 9.6ZM141.916 34.4C145.016 34.4 147.432 33.5833 149.166 31.95C150.932 30.3167 151.816 28.1667 151.816 25.5C151.816 23.8333 151.499 22.4333 150.866 21.3C150.266 20.1333 149.466 19.2667 148.466 18.7C146.632 17.6 144.549 17.05 142.216 17.05V16.6C143.282 16.6 144.182 16.2167 144.916 15.45C146.182 14.1167 146.816 12.3 146.816 10C146.816 7.7 146.299 6 145.266 4.9C144.266 3.8 142.682 3.21667 140.516 3.15V34.35C140.982 34.3833 141.449 34.4 141.916 34.4ZM184.063 0.299998C190.229 0.299998 195.129 1.93333 198.763 5.2C202.396 8.46667 204.213 12.9 204.213 18.5C204.213 24.1 202.396 28.5333 198.763 31.8C195.129 35.0667 190.229 36.7 184.063 36.7C177.896 36.7 172.996 35.0667 169.363 31.8C165.729 28.5333 163.913 24.1 163.913 18.5C163.913 14.8 164.729 11.5833 166.363 8.85C168.029 6.08333 170.379 3.96666 173.413 2.5C176.446 1.03333 179.996 0.299998 184.063 0.299998ZM175.313 30.3C177.479 33.1667 180.396 34.6 184.063 34.6C187.729 34.6 190.629 33.1667 192.763 30.3C194.929 27.4 196.013 23.4667 196.013 18.5C196.013 15.2333 195.529 12.3833 194.563 9.95C193.596 7.51666 192.213 5.65 190.413 4.35C188.613 3.05 186.496 2.4 184.063 2.4C180.396 2.4 177.479 3.85 175.313 6.75C173.179 9.61667 172.113 13.5333 172.113 18.5C172.113 23.4667 173.179 27.4 175.313 30.3ZM225.407 35.5C226.107 35.5 226.674 35.1667 227.107 34.5C227.307 34.1333 227.407 33.7833 227.407 33.45C227.407 33.1167 227.307 32.7833 227.107 32.45L220.107 21.55L212.757 32.4C212.19 33.4 212.357 34.2667 213.257 35C213.657 35.3333 214.074 35.5 214.507 35.5H215.157V36H202.807V35.5H203.507C205.374 35.5 207.024 34.5667 208.457 32.7L218.307 18.75L209.057 4.45C208.49 3.61667 207.757 2.91667 206.857 2.35C205.957 1.78333 205.007 1.5 204.007 1.5H203.307V0.999998H220.307V1.5H219.657C218.957 1.5 218.39 1.83333 217.957 2.5C217.757 2.86667 217.657 3.23333 217.657 3.6C217.657 3.93333 217.74 4.25 217.907 4.55L224.157 14.2L230.307 4.6C230.507 4.26667 230.607 3.93333 230.607 3.6C230.607 3.23333 230.49 2.88333 230.257 2.55C229.824 1.85 229.257 1.5 228.557 1.5H227.907V0.999998H240.207V1.5H239.507C238.507 1.5 237.574 1.78333 236.707 2.35C235.84 2.88333 235.107 3.56667 234.507 4.4L226.007 17.05L236.057 32.6C236.624 33.4333 237.357 34.1333 238.257 34.7C239.19 35.2333 240.14 35.5 241.107 35.5H241.807V36H224.757V35.5H225.407Z" fill="#E94560" fill-opacity="0.8"/>
</svg>
